<?xml version="1.0" encoding="UTF-8" standalone="no"?>
<!-- Created with Inkscape (http://www.inkscape.org/) -->

<svg
   width="1150.3876"
   height="1463.9255"
   viewBox="0 0 304.37338 387.3303"
   version="1.1"
   id="svg15594"
   inkscape:version="1.2.2 (732a01da63, 2022-12-09)"
   xml:space="preserve"
   sodipodi:docname="locomotive_gpsMarker.svg"
   xmlns:inkscape="http://www.inkscape.org/namespaces/inkscape"
   xmlns:sodipodi="http://sodipodi.sourceforge.net/DTD/sodipodi-0.dtd"
   xmlns="http://www.w3.org/2000/svg"
   xmlns:svg="http://www.w3.org/2000/svg"><sodipodi:namedview
     id="namedview15596"
     pagecolor="#ffffff"
     bordercolor="#ffffff"
     borderopacity="0.51764706"
     inkscape:showpageshadow="0"
     inkscape:pageopacity="0"
     inkscape:pagecheckerboard="true"
     inkscape:deskcolor="#808080"
     inkscape:document-units="mm"
     showgrid="false"
     showborder="false"
     borderlayer="false"
     inkscape:zoom="0.4204826"
     inkscape:cx="1217.6485"
     inkscape:cy="750.32831"
     inkscape:window-width="2400"
     inkscape:window-height="1261"
     inkscape:window-x="2392"
     inkscape:window-y="-9"
     inkscape:window-maximized="1"
     inkscape:current-layer="layer1" /><defs
     id="defs15591" /><g
     inkscape:label="Layer 1"
     inkscape:groupmode="layer"
     id="layer1"
     transform="translate(322.06278,62.239925)"><path
       style="display:inline;fill:#343434;stroke:none;stroke-width:0.771435"
       d="m -175.08881,-61.682714 c -23.04275,3.025535 -44.59201,5.609138 -65.57195,16.88286 -16.50777,8.870649 -31.82222,20.242443 -44.07237,34.475873 -42.34951,49.205954 -47.92847,116.597701 -20.48113,174.344211 12.96304,27.27253 33.85812,50.82057 53.63377,73.28628 19.43637,22.08 39.79916,43.38162 59.07577,65.57194 5.07064,5.83667 10.49537,11.391 15.84296,16.97156 1.54364,1.61153 3.70443,5.24036 6.23165,5.24036 5.86059,0 15.96638,-16.37293 19.57207,-20.66905 17.52236,-20.87502 35.58088,-41.32344 52.761504,-62.4862 31.47994,-38.77462 69.87733,-79.06201 78.50197,-130.37244 12.4062096,-73.810087 -37.16001,-147.307049 -108.436724,-167.50964 -14.47212,-4.101964 -31.99448,-7.713523 -47.05752,-5.735754 m -13.88582,53.9772136 c 8.87381,-2.038747 28.47751,-2.6483346 37.02886,0.444038 4.31618,1.56092 6.4654,6.90958503 10.83095,7.62331603 11.0724,1.81017097 24.52853,-3.78689503 31.27627,8.60002897 3.15209,5.7865314 1.86456,13.6975924 1.86456,20.0572994 V 72.21952 c 0,18.70034 0.87789,37.63829 -0.0309,56.31472 -0.33866,6.9622 -4.50209,13.34119 -11.54066,15.01829 -8.26901,1.96947 -18.51598,0.4104 -27.00021,0.4104 h -55.5433 c -9.0335,0 -21.35872,2.44391 -28.17357,-4.86081 -6.90897,-7.40577 -4.22669,-21.31705 -4.22669,-30.62518 V 35.962093 c 0,-8.85144 -2.49945,-21.931113 3.38968,-29.3026334 8.18338,-10.24442 19.91228,-3.583237 30.48402,-6.42859597 4.61781,-1.24270403 6.65285,-6.79047503 11.64095,-7.93636403 m -19.28587,21.6547084 c -17.77694,3.206082 -14.65726,22.215001 -14.65726,35.898712 0,4.5044 -1.8283,13.7755 2.49019,16.64987 6.6868,4.44886 18.35706,3.71831 26.05289,4.24829 21.23837,1.46187 45.47839,2.79799 66.34339,-2.30659 2.5681,-0.62795 5.9439,-1.45338 7.14194,-4.09941 1.5961,-3.52699 0.57241,-9.14998 0.57241,-12.9493 0,-10.753022 3.23154,-27.848012 -6.946,-34.98301 -6.31188,-4.424949 -15.86224,-2.817279 -23.13996,-2.817279 -18.46814,0 -39.69417,-2.917643 -57.8576,0.358717 m 0.77143,87.996772 c -15.03063,3.581 -9.72316,27.28718 5.40005,23.8651 15.84527,-3.58563 10.26471,-27.5973 -5.40005,-23.8651 m 67.11482,-7.7e-4 c -15.27826,3.56634 -9.95305,27.51938 5.40005,23.86278 15.15483,-3.60954 9.98545,-27.45381 -5.40005,-23.86278 m -58.62903,47.41776 -15.94324,24.68591 -7.27155,8.72261 -23.84273,-0.23683 19.28587,-23.14304 9.2873,-9.45624 18.48435,-0.57241 m 102.600814,33.17169 c -4.920214,1.26978 -20.063474,1.95867 -24.434424,-0.3456 -3.09963,-1.63467 -5.06216,-6.09974 -6.93751,-8.91162 -4.92176,-7.38262 -11.75898,-14.81925 -14.91415,-23.14303 l 17.73143,-0.30626 9.45856,9.56347 z"
       id="path299" /></g></svg>
