<?xml version="1.0" encoding="UTF-8" standalone="no"?>
<!-- Created with Inkscape (http://www.inkscape.org/) -->

<svg
   width="186.87642"
   height="239.38869"
   viewBox="0 0 49.44438 63.33825"
   version="1.1"
   id="svg15594"
   inkscape:version="1.2.2 (732a01da63, 2022-12-09)"
   xml:space="preserve"
   sodipodi:docname="locomotive_gpsMarker2.svg"
   inkscape:export-filename="locomotive_gpsMarker2export.svg"
   inkscape:export-xdpi="96"
   inkscape:export-ydpi="96"
   xmlns:inkscape="http://www.inkscape.org/namespaces/inkscape"
   xmlns:sodipodi="http://sodipodi.sourceforge.net/DTD/sodipodi-0.dtd"
   xmlns="http://www.w3.org/2000/svg"
   xmlns:svg="http://www.w3.org/2000/svg"><sodipodi:namedview
     id="namedview15596"
     pagecolor="#ffffff"
     bordercolor="#ffffff"
     borderopacity="0.51764706"
     inkscape:showpageshadow="0"
     inkscape:pageopacity="0"
     inkscape:pagecheckerboard="true"
     inkscape:deskcolor="#808080"
     inkscape:document-units="mm"
     showgrid="false"
     showborder="false"
     borderlayer="false"
     inkscape:zoom="2.9101758"
     inkscape:cx="132.1226"
     inkscape:cy="90.544358"
     inkscape:window-width="2400"
     inkscape:window-height="1261"
     inkscape:window-x="-9"
     inkscape:window-y="-9"
     inkscape:window-maximized="1"
     inkscape:current-layer="layer3" /><defs
     id="defs15591" /><g
     inkscape:groupmode="layer"
     id="layer2"
     inkscape:label="Layer 2"
     style="display:inline;fill:#000000;stroke:none"
     transform="translate(-24.96992,-17.158735)"
     inkscape:export-filename=".\locomotive_gpsMarker2export2.svg"
     inkscape:export-xdpi="96"
     inkscape:export-ydpi="96"><path
       style="fill:#000000;stroke:none;stroke-width:3.43622;stroke-linecap:round;stroke-linejoin:round;stroke-miterlimit:3.8"
       d="m 187.81271,64.851913 -39.7098,12.11267 c -8.39727,0.901792 -19.32481,-1.091705 -27.51714,1.689922 -8.05279,2.940502 -13.07131,11.376041 -12.53447,19.830964 -0.91614,39.149981 -0.33141,78.325491 -0.4142,117.484841 0.5266,9.95226 -0.80444,20.33391 2.16753,29.973 3.69762,6.50912 10.73478,11.22209 18.42941,11.0402 37.36471,0.76144 74.75163,0.46968 112.12094,0.14472 7.10323,-0.28715 15.48437,0.32041 20.51172,-5.79435 8.1727,-8.63623 5.62208,-21.57575 6.22479,-32.34875 0.0137,-39.92488 0.29431,-79.86621 -0.70268,-119.780428 -0.1466,-5.82321 -0.7374,-12.311269 -5.72882,-16.181099 -6.71656,-7.369589 -25.06835,-5.027357 -33.97089,-5.799612 z m -22.2004,29.105845 c 21.72506,0.396634 43.56214,1.163211 65.33111,1.606701 6.31271,-0.228192 13.06212,3.165762 15.53546,9.391881 5.1639,10.32706 2.63274,22.23034 3.15943,33.28427 -0.44884,5.93113 0.4945,12.1425 -0.67756,17.93821 -3.54121,5.31755 -10.95678,5.21708 -16.53186,6.70249 -19.55157,3.35408 -39.40782,2.20415 -59.14012,1.96188 -13.47017,-0.78461 -27.27578,-0.63464 -40.49369,-3.37716 -3.81456,-1.08462 -8.61643,-2.9582 -8.38249,-7.75699 -0.66772,-13.6901 -1.00633,-27.5527 0.7812,-41.21986 0.85039,-7.20874 5.56266,-14.133519 12.9838,-15.709964 8.81909,-2.583278 18.20932,-2.679831 27.43472,-2.821458 z M 146.23123,204.79594 c 8.82623,-0.7049 14.7189,9.13673 12.84018,17.09921 -1.22455,11.08274 -17.94221,14.76156 -23.93541,5.39862 -4.88103,-6.77285 -3.47428,-18.34353 5.08051,-21.42133 1.90459,-0.76411 3.96833,-1.08836 6.01472,-1.0765 z m 82.92159,0.12751 c 10.84677,-0.9219 16.4342,13.04181 11.30463,21.40255 -4.57466,8.25472 -18.39843,8.56036 -22.86965,-0.003 -4.89521,-7.5905 -1.11443,-19.99307 8.57175,-21.14751 0.98752,-0.1738 1.99088,-0.25297 2.99327,-0.25235 z"
       id="path2400"
       transform="scale(0.26458333)"
       sodipodi:nodetypes="ccccccccccccccccccccccccccccccccccccc" /><path
       style="fill:#000000;stroke:none;stroke-width:3.43622;stroke-linecap:round;stroke-linejoin:round;stroke-miterlimit:3.8"
       d="m 129.85497,263.46667 -35.480468,40.47984 29.606478,0.29409 28.82676,-41.48472 z"
       id="path2402"
       sodipodi:nodetypes="ccccc"
       transform="scale(0.26458333)" /><path
       style="fill:#000000;stroke:none;stroke-width:0.909167;stroke-linecap:round;stroke-linejoin:round;stroke-miterlimit:3.8"
       d="m 65.026764,69.70889 9.387541,10.710291 -7.833381,0.07781 -7.62708,-10.976165 z"
       id="path2402-5"
       sodipodi:nodetypes="ccccc" /></g></svg>
